<svg xmlns="http://www.w3.org/2000/svg" width="506.758" height="85.677" viewBox="0 0 506.758 85.677">
  <g id="Group_29077" data-name="Group 29077" transform="translate(-202.945 -49.088)">
    <path id="Path_108581" data-name="Path 108581" d="M114.117,76.251v38.8a8.13,8.13,0,0,1-8.13,8.13H44.747a8.13,8.13,0,0,1-8.13-8.13v-38.8A8.133,8.133,0,0,1,39,70.5L69.617,39.884a8.13,8.13,0,0,1,11.5,0l3.789,3.789a5.578,5.578,0,0,1,1.635,3.947V63.529a.508.508,0,0,1-.868.36L79,57.214a5.134,5.134,0,0,0-7.263,0L52.4,76.555a5.126,5.126,0,0,0-1.505,3.63v24.506a5.135,5.135,0,0,0,5.135,5.135H94.708a5.135,5.135,0,0,0,5.137-5.135v-43.7a.985.985,0,0,1,1.681-.7L111.735,70.5a8.131,8.131,0,0,1,2.382,5.75" transform="translate(595.585 11.586)" fill="#1b47ea"/>
    <path id="Path_108582" data-name="Path 108582" d="M75.071,69.386V80.574a2.342,2.342,0,0,1-2.342,2.342H55.067a2.344,2.344,0,0,1-2.344-2.344V69.386a2.343,2.343,0,0,1,.687-1.657l8.828-8.83a2.345,2.345,0,0,1,3.317,0l8.83,8.83a2.343,2.343,0,0,1,.687,1.657" transform="translate(607.056 26.337)" fill="#1b47ea"/>
    <g id="Group_29073" data-name="Group 29073" transform="translate(202.945 63)">
      <path id="Path_108583" data-name="Path 108583" d="M117.987,64.355v5.394h-4.294a4.4,4.4,0,0,1-2.247-.525,5.805,5.805,0,0,1-1.5-1.223,10.967,10.967,0,0,1-2.272,1.373,8.745,8.745,0,0,1-3.72.675,13.6,13.6,0,0,1-3.2-.4,7.354,7.354,0,0,1-3-1.523,8.017,8.017,0,0,1-2.2-3.2,14.646,14.646,0,0,1-.849-5.468,14.338,14.338,0,0,1,.5-3.846A7.928,7.928,0,0,1,96.866,52.5a8.063,8.063,0,0,1,2.947-2.1,11.229,11.229,0,0,1,4.443-.775,24.92,24.92,0,0,1,3.32.225q1.674.225,3.122.5t2.9.624V63.557a.687.687,0,0,0,.275.6,1.023,1.023,0,0,0,.624.2ZM98.713,43.982a3.125,3.125,0,0,1,.949-2.3,3.186,3.186,0,0,1,2.347-.949,3.246,3.246,0,1,1,0,6.493,3.181,3.181,0,0,1-2.347-.95,3.119,3.119,0,0,1-.949-2.3M108,55.068a12.483,12.483,0,0,0-1.848-.251c-.6-.031-1.1-.049-1.5-.049a6.931,6.931,0,0,0-1.7.2,3.291,3.291,0,0,0-1.4.723,3.351,3.351,0,0,0-.925,1.473,7.5,7.5,0,0,0-.325,2.4,6.06,6.06,0,0,0,1.049,3.97,3.668,3.668,0,0,0,2.947,1.223,5.829,5.829,0,0,0,1.473-.174,6.487,6.487,0,0,0,1.2-.425,7.137,7.137,0,0,0,1.025-.6Zm-1.748-11.086a3.088,3.088,0,0,1,.973-2.3,3.215,3.215,0,0,1,2.322-.949,3.246,3.246,0,1,1,0,6.493,3.211,3.211,0,0,1-2.322-.95,3.082,3.082,0,0,1-.973-2.3" transform="translate(-94.718 -35.993)" fill="#1b47ea"/>
      <path id="Path_108584" data-name="Path 108584" d="M117.025,50.346q0-2.295,2.148-2.3h3.446V58.537q0,4.144-2.323,6.117t-7.016,1.972h-3.445V61.232h3.245a4.5,4.5,0,0,0,2.872-.849,2.933,2.933,0,0,0,1.073-2.446Zm-7.09,22.471a3.13,3.13,0,0,1,.949-2.3,3.188,3.188,0,0,1,2.347-.949,3.246,3.246,0,1,1,0,6.493,3.193,3.193,0,0,1-2.347-.949,3.133,3.133,0,0,1-.949-2.3m7.54,0a3.088,3.088,0,0,1,.973-2.3,3.215,3.215,0,0,1,2.322-.949,3.246,3.246,0,1,1,0,6.493,3.221,3.221,0,0,1-2.322-.949,3.09,3.09,0,0,1-.973-2.3" transform="translate(-88.264 -32.87)" fill="#1b47ea"/>
      <path id="Path_108585" data-name="Path 108585" d="M126.963,50.347q0-2.3,2.2-2.3h3.4v22.67q0,3.744-1.748,5.492a6.415,6.415,0,0,1-4.745,1.748,12.323,12.323,0,0,1-4.793-1,1.9,1.9,0,0,1-.9-2.5l.749-2.947a11.6,11.6,0,0,0,2.3,1.023,6.054,6.054,0,0,0,1.648.275,1.719,1.719,0,0,0,1.473-.575,3.1,3.1,0,0,0,.424-1.822Z" transform="translate(-83.821 -32.87)" fill="#1b47ea"/>
      <path id="Path_108586" data-name="Path 108586" d="M132.651,39.792h3.4a1.963,1.963,0,0,1,2.2,2.246V61.513a3.037,3.037,0,0,0,.949,2.423,4.6,4.6,0,0,0,3.047.823h1.9v5.392h-1.948a13.188,13.188,0,0,1-4.669-.7,7.005,7.005,0,0,1-2.921-2,7.305,7.305,0,0,1-1.524-3.169,19.189,19.189,0,0,1-.424-4.221Z" transform="translate(-78.523 -36.396)" fill="#1b47ea"/>
      <path id="Path_108587" data-name="Path 108587" d="M162.688,59.047a6.757,6.757,0,0,1-.675,3.021,13.149,13.149,0,0,1-1.373,2.272h5.992v5.394H139.369V64.34h5.992a13.066,13.066,0,0,1-1.373-2.272,6.738,6.738,0,0,1-.675-3.021,12.747,12.747,0,0,1,.549-3.844,7.567,7.567,0,0,1,1.7-2.971,7.8,7.8,0,0,1,3-1.922,12.408,12.408,0,0,1,4.395-.7q4.893,0,7.316,2.621a9.647,9.647,0,0,1,2.422,6.815M146.11,44.017a3.127,3.127,0,0,1,.949-2.3,3.19,3.19,0,0,1,2.346-.949,3.246,3.246,0,1,1,0,6.493,3.185,3.185,0,0,1-2.346-.949,3.125,3.125,0,0,1-.949-2.3m11.234,14.93a4.067,4.067,0,0,0-1.223-3.071A4.327,4.327,0,0,0,153,54.7a3.991,3.991,0,0,0-3.37,1.273,4.757,4.757,0,0,0-.975,2.971,4.126,4.126,0,0,0,1.174,2.872,14.908,14.908,0,0,0,3.221,2.52,15.512,15.512,0,0,0,1.5-1.023,9.917,9.917,0,0,0,1.373-1.273,7.192,7.192,0,0,0,1.023-1.473,3.489,3.489,0,0,0,.4-1.624m-3.694-14.93a3.09,3.09,0,0,1,.973-2.3,3.218,3.218,0,0,1,2.322-.949,3.246,3.246,0,1,1,0,6.493,3.213,3.213,0,0,1-2.322-.949,3.088,3.088,0,0,1-.973-2.3" transform="translate(-75.655 -35.978)" fill="#1b47ea"/>
      <path id="Path_108588" data-name="Path 108588" d="M157.285,61.71h9.288l-4.2-4.943a9.149,9.149,0,0,1,3.422-7.416,10.3,10.3,0,0,1,3.495-1.822,13.931,13.931,0,0,1,4.07-.6,14.868,14.868,0,0,1,4.045.549,9.657,9.657,0,0,1,3.446,1.748,8.441,8.441,0,0,1,2.372,3.071,10.5,10.5,0,0,1,.873,4.469l-4.245,4.943h9.238V67.1H175.961a3.168,3.168,0,0,1-1.822-.525,1.825,1.825,0,0,1-.875-1.273,1.73,1.73,0,0,1-.873,1.323,2.978,2.978,0,0,1-1.574.475H157.285Zm10.586-6.441,5.392,6.291,5.344-6.291a2.9,2.9,0,0,0-.5-1.173,4.952,4.952,0,0,0-1.049-1.074,5.236,5.236,0,0,0-1.573-.8,7.571,7.571,0,0,0-4.3.026,6.283,6.283,0,0,0-1.672.823,4.716,4.716,0,0,0-1.124,1.1,2.966,2.966,0,0,0-.524,1.1" transform="translate(-68.006 -33.348)" fill="#1b47ea"/>
      <path id="Path_108589" data-name="Path 108589" d="M190.7,60.015a19.5,19.5,0,0,1-.424,4.244,7.335,7.335,0,0,1-1.524,3.2,7.028,7.028,0,0,1-2.921,2,13.193,13.193,0,0,1-4.669.7h-2.847V64.758h2.8a4.486,4.486,0,0,0,3.045-.849,3.105,3.105,0,0,0,.95-2.446V42.038a1.985,1.985,0,0,1,2.246-2.246H190.7Z" transform="translate(-59.026 -36.396)" fill="#1b47ea"/>
      <path id="Path_108590" data-name="Path 108590" d="M196.648,67.9a1.965,1.965,0,0,1-2.2,2.247h-3.4V42.038a1.964,1.964,0,0,1,2.2-2.246h3.4Z" transform="translate(-53.588 -36.396)" fill="#1b47ea"/>
      <path id="Path_108591" data-name="Path 108591" d="M234.35,68.255A15.849,15.849,0,0,1,233.876,72a8.858,8.858,0,0,1-1.848,3.6,10.16,10.16,0,0,1-3.87,2.721,16.784,16.784,0,0,1-6.541,1.073,26,26,0,0,1-4.894-.5,13.137,13.137,0,0,1-4.769-1.922,11.237,11.237,0,0,1-3.644-4.1,13.087,13.087,0,0,1-1.474-6.417,26.814,26.814,0,0,1,.151-2.9q.148-1.4.374-2.821t.549-2.871a25.221,25.221,0,0,1,.773-2.747,26.958,26.958,0,0,1,3.646.6,1.556,1.556,0,0,1,1.223.9,3.228,3.228,0,0,1-.074,1.8q-.3,1.047-.675,3.171a28.253,28.253,0,0,0-.374,4.867,6.98,6.98,0,0,0,1,3.821,6.249,6.249,0,0,0,2.422,2.3,8.824,8.824,0,0,0,3.071.9,28.873,28.873,0,0,0,3,.174,11.281,11.281,0,0,0,3.495-.449,4.967,4.967,0,0,0,2.1-1.249,4.025,4.025,0,0,0,1-1.848,9.5,9.5,0,0,0,.25-2.2V51.926q0-2.25,2.146-2.247h3.446ZM218.122,47.481a3.24,3.24,0,0,1,3.246-3.246,3.221,3.221,0,0,1,2.322.949,3.09,3.09,0,0,1,.973,2.3,3.146,3.146,0,0,1-.973,2.347,3.214,3.214,0,0,1-2.322.947,3.129,3.129,0,0,1-2.3-.947,3.185,3.185,0,0,1-.949-2.347" transform="translate(-53.152 -34.499)" fill="#1b47ea"/>
      <path id="Path_108592" data-name="Path 108592" d="M230.213,39.792h3.4a1.963,1.963,0,0,1,2.2,2.246V61.513a3.037,3.037,0,0,0,.949,2.423,4.605,4.605,0,0,0,3.047.823h1.9v5.392h-1.948a13.187,13.187,0,0,1-4.669-.7,7.006,7.006,0,0,1-2.921-2,7.305,7.305,0,0,1-1.524-3.169,19.19,19.19,0,0,1-.424-4.221Z" transform="translate(-43.171 -36.396)" fill="#1b47ea"/>
      <path id="Path_108593" data-name="Path 108593" d="M236.931,61.71h9.288l-4.2-4.943a9.149,9.149,0,0,1,3.422-7.416,10.3,10.3,0,0,1,3.495-1.822,13.929,13.929,0,0,1,4.07-.6,14.868,14.868,0,0,1,4.045.549,9.657,9.657,0,0,1,3.446,1.748,8.441,8.441,0,0,1,2.372,3.071,10.5,10.5,0,0,1,.873,4.469L259.5,61.71h9.238V67.1H255.607a3.168,3.168,0,0,1-1.822-.525,1.825,1.825,0,0,1-.875-1.273,1.73,1.73,0,0,1-.873,1.323,2.978,2.978,0,0,1-1.574.475H236.931Zm10.587-6.441,5.392,6.291,5.344-6.291a2.9,2.9,0,0,0-.5-1.173,4.956,4.956,0,0,0-1.049-1.074,5.237,5.237,0,0,0-1.572-.8,7.572,7.572,0,0,0-4.3.026,6.283,6.283,0,0,0-1.672.823,4.684,4.684,0,0,0-1.123,1.1,2.946,2.946,0,0,0-.525,1.1" transform="translate(-40.303 -33.348)" fill="#1b47ea"/>
      <path id="Path_108594" data-name="Path 108594" d="M263.555,50.346q0-2.3,2.2-2.3h3.395V60.383q0,.55.925.7a19.742,19.742,0,0,0,2.871.15h1.848v5.394h-1.848a9.15,9.15,0,0,1-2.6-.475,8.855,8.855,0,0,1-2.8-1.423,8.2,8.2,0,0,1-2.173,1.323,7.639,7.639,0,0,1-3.069.575h-4.345V61.232h3.146a2.14,2.14,0,0,0,2.447-2.3Zm-1.2,22.422a3.237,3.237,0,0,1,3.245-3.246,3.2,3.2,0,0,1,2.322.949,3.089,3.089,0,0,1,.975,2.3,3.146,3.146,0,0,1-.975,2.346,3.21,3.21,0,0,1-2.322.949,3.13,3.13,0,0,1-2.3-.949,3.188,3.188,0,0,1-.948-2.346" transform="translate(-31.324 -32.87)" fill="#1b47ea"/>
      <path id="Path_108595" data-name="Path 108595" d="M272.476,52.3q0-2.247,2.146-2.247h3.446V52.4l14.88-2.347a8.619,8.619,0,0,1,1.848,0,8.151,8.151,0,0,1,4.469,1.922,8.781,8.781,0,0,1,1.7,1.922,9.106,9.106,0,0,1,1.073,2.5,12.83,12.83,0,0,1,.4,3.4,18.057,18.057,0,0,1-.124,2.172,10.706,10.706,0,0,1-.475,2.072q0,.25.723.25h3.322v5.394h-1.9a8.28,8.28,0,0,1-2.422-.449,11.407,11.407,0,0,1-2.623-1.2,9.747,9.747,0,0,1-2.322,1.173,8.908,8.908,0,0,1-3.021.475H268.53V64.28h3.945Zm5.542-8.141a3.24,3.24,0,0,1,3.246-3.245,3.215,3.215,0,0,1,2.322.949,3.089,3.089,0,0,1,.973,2.3,3.142,3.142,0,0,1-.973,2.347,3.209,3.209,0,0,1-2.322.949,3.122,3.122,0,0,1-2.3-.949,3.18,3.18,0,0,1-.949-2.347M292.9,64.28a5.206,5.206,0,0,0,1.173-.174,4.36,4.36,0,0,0,1.4-.625,3.716,3.716,0,0,0,1.149-1.273,4.325,4.325,0,0,0,.475-2.172,6.044,6.044,0,0,0-.425-2.447,3.945,3.945,0,0,0-1.023-1.448,3.581,3.581,0,0,0-1.274-.7,4.235,4.235,0,0,0-1.173-.2l-15.13,2.6V64.28Z" transform="translate(-26.812 -35.918)" fill="#1b47ea"/>
      <path id="Path_108596" data-name="Path 108596" d="M306.039,60.015a19.5,19.5,0,0,1-.424,4.244,7.334,7.334,0,0,1-1.524,3.2,7.028,7.028,0,0,1-2.921,2,13.193,13.193,0,0,1-4.669.7h-2.847V64.758h2.8a4.493,4.493,0,0,0,3.047-.849,3.109,3.109,0,0,0,.949-2.446V42.038a1.985,1.985,0,0,1,2.246-2.246h3.346Z" transform="translate(-16.085 -36.396)" fill="#1b47ea"/>
      <path id="Path_108597" data-name="Path 108597" d="M311.985,67.9a1.965,1.965,0,0,1-2.2,2.247h-3.395V42.038a1.963,1.963,0,0,1,2.2-2.246h3.4Z" transform="translate(-10.647 -36.396)" fill="#1b47ea"/>
      <g id="Group_29075" data-name="Group 29075" transform="translate(309.834)">
        <path id="Path_108598" data-name="Path 108598" d="M345.793,64.355v5.394H341.5a4.4,4.4,0,0,1-2.247-.525,5.773,5.773,0,0,1-1.5-1.223,11.023,11.023,0,0,1-2.273,1.373,8.745,8.745,0,0,1-3.72.675,13.612,13.612,0,0,1-3.2-.4,7.355,7.355,0,0,1-3-1.523,8.033,8.033,0,0,1-2.2-3.2,14.648,14.648,0,0,1-.849-5.468,14.336,14.336,0,0,1,.5-3.846,7.928,7.928,0,0,1,1.648-3.121,8.05,8.05,0,0,1,2.947-2.1,11.234,11.234,0,0,1,4.443-.775,24.957,24.957,0,0,1,3.322.225q1.672.225,3.121.5t2.9.624V63.557a.687.687,0,0,0,.275.6,1.023,1.023,0,0,0,.624.2ZM326.519,43.982a3.13,3.13,0,0,1,.949-2.3,3.188,3.188,0,0,1,2.347-.949,3.246,3.246,0,1,1,0,6.493,3.183,3.183,0,0,1-2.347-.95,3.125,3.125,0,0,1-.949-2.3m9.288,11.086a12.482,12.482,0,0,0-1.848-.251c-.6-.031-1.1-.049-1.5-.049a6.91,6.91,0,0,0-1.7.2,3.29,3.29,0,0,0-1.4.723,3.351,3.351,0,0,0-.925,1.473,7.5,7.5,0,0,0-.324,2.4,6.069,6.069,0,0,0,1.047,3.97,3.67,3.67,0,0,0,2.947,1.223,5.849,5.849,0,0,0,1.474-.174,6.528,6.528,0,0,0,1.2-.425,7.211,7.211,0,0,0,1.023-.6Zm-1.748-11.086a3.084,3.084,0,0,1,.974-2.3,3.21,3.21,0,0,1,2.32-.949,3.246,3.246,0,1,1,0,6.493,3.205,3.205,0,0,1-2.32-.95,3.079,3.079,0,0,1-.974-2.3" transform="translate(-322.524 -35.993)" fill="#1b47ea"/>
        <path id="Path_108599" data-name="Path 108599" d="M337.642,70.018V64.624h19.974V63.576a10.975,10.975,0,0,0-.251-2.347,4.733,4.733,0,0,0-1-2.048,5.021,5.021,0,0,0-2.123-1.423,10.344,10.344,0,0,0-3.62-.524h-5.942a2.533,2.533,0,0,1-1.273-.275,3.865,3.865,0,0,1-1.025-.975q-.848-1.4-1.747-3.045l16.577-12.834q1.3,1.348,2.347,2.5a1.782,1.782,0,0,1-.2,2.745l-8.489,6.692h.949a14.536,14.536,0,0,1,5.194.823,8.453,8.453,0,0,1,3.47,2.373,9.559,9.559,0,0,1,1.922,3.72,18.51,18.51,0,0,1,.6,4.919V67.62q0,2.4-2,2.4Z" transform="translate(-316.069 -36.261)" fill="#1b47ea"/>
        <path id="Path_108600" data-name="Path 108600" d="M364.043,50.347q0-2.3,2.2-2.3h3.395V60.634q0,.449,1.1.524t2.647.076h1.848v5.392h-1.848a6.17,6.17,0,0,1-1.874-.374,7.847,7.847,0,0,1-1.872-.875v5.344q0,3.744-1.747,5.492a6.415,6.415,0,0,1-4.744,1.748,12.323,12.323,0,0,1-4.793-1,1.9,1.9,0,0,1-.9-2.5l.748-2.947a11.633,11.633,0,0,0,2.3,1.023,6.054,6.054,0,0,0,1.647.275,1.72,1.72,0,0,0,1.474-.575,3.11,3.11,0,0,0,.424-1.822Z" transform="translate(-307.667 -32.87)" fill="#1b47ea"/>
        <path id="Path_108601" data-name="Path 108601" d="M395.786,71.168a7.7,7.7,0,0,1-3.522-.725,9.544,9.544,0,0,1-2.172-1.423,7.18,7.18,0,0,1-2.022,1.323,10.705,10.705,0,0,1-3.57.825h-1a9.891,9.891,0,0,1-2.571-.424,8.688,8.688,0,0,1-2.773-1.324,6.945,6.945,0,0,1-2.172,1.249,8.838,8.838,0,0,1-3.121.5h-4.044V65.774h2.945a2.372,2.372,0,0,0,1.9-.649,2.453,2.453,0,0,0,.549-1.647V57.984q0-2.295,2.148-2.3h3.445v9.237a6.525,6.525,0,0,0,1.149.525,9.443,9.443,0,0,0,3.646.25,3.708,3.708,0,0,0,1-.274,2.1,2.1,0,0,0,.748-.549,1.4,1.4,0,0,0,.3-.949V57.984q0-2.295,2.2-2.3h3.4v8.888a3.181,3.181,0,0,0,1.748,1.023,9.888,9.888,0,0,0,1.8.174q2.145,0,2.871-.947a4.56,4.56,0,0,0,.724-2.8v-7.14q0-2.3,2.2-2.3h3.395V61.93a16.332,16.332,0,0,1-.4,3.746,6.95,6.95,0,0,1-1.423,2.92,6.573,6.573,0,0,1-2.821,1.9,13.082,13.082,0,0,1-4.543.675M382.9,47.3a3.13,3.13,0,0,1,.949-2.3,3.188,3.188,0,0,1,2.347-.949,3.246,3.246,0,1,1,0,6.493,3.184,3.184,0,0,1-2.347-.95,3.125,3.125,0,0,1-.949-2.3m3.694-6.592a3.241,3.241,0,0,1,3.3-3.295,3.133,3.133,0,0,1,2.3.949,3.19,3.19,0,0,1,.949,2.346,3.24,3.24,0,0,1-3.246,3.246A3.187,3.187,0,0,1,387.545,43a3.128,3.128,0,0,1-.949-2.3m3.845,6.592a3.084,3.084,0,0,1,.975-2.3,3.21,3.21,0,0,1,2.322-.949,3.246,3.246,0,1,1,0,6.493,3.206,3.206,0,0,1-2.322-.95,3.079,3.079,0,0,1-.975-2.3" transform="translate(-302.758 -37.412)" fill="#1b47ea"/>
      </g>
      <path id="Path_108602" data-name="Path 108602" d="M107.866,90.658a.844.844,0,0,1,.011.661q-.128.321-.711.321h-1.441l-1.02-2.8h-4.92l-.983,2.8H97.3q-.539,0-.668-.321a.837.837,0,0,1,.009-.661q.9-2.38,4.322-11.464a1.739,1.739,0,0,1,.539-.82,1.193,1.193,0,0,1,.742-.26,1.155,1.155,0,0,1,.719.26,1.98,1.98,0,0,1,.579.82Zm-3.96-4.021-1.661-4.762L100.6,86.637Z" transform="translate(-94.241 -20.035)" fill="#1b47ea"/>
      <path id="Path_108603" data-name="Path 108603" d="M115.357,89.337v1.42a.717.717,0,0,1-.8.822h-4.521a4.082,4.082,0,0,1-1.461-.231,2.5,2.5,0,0,1-1.559-1.651,4.182,4.182,0,0,1-.181-1.26V79.054a.7.7,0,0,1,.78-.8h1.461v9.8a1.346,1.346,0,0,0,.3.992,1.287,1.287,0,0,0,.92.29Z" transform="translate(-88.252 -19.813)" fill="#1b47ea"/>
      <path id="Path_108604" data-name="Path 108604" d="M121.564,78.254a7.523,7.523,0,0,1,2.911.479,4.075,4.075,0,0,1,1.761,1.351,5.131,5.131,0,0,1,.86,2.1,14.844,14.844,0,0,1,.231,2.711,13.341,13.341,0,0,1-.3,3.031,4.875,4.875,0,0,1-.99,2.082,4.017,4.017,0,0,1-1.791,1.19,8.253,8.253,0,0,1-2.681.381h-2.721a2.2,2.2,0,0,1-.91-.161,1.408,1.408,0,0,1-.551-.42,1.464,1.464,0,0,1-.27-.581,3.143,3.143,0,0,1-.07-.661V80.033a2.27,2.27,0,0,1,.15-.889,1.388,1.388,0,0,1,.4-.551,1.356,1.356,0,0,1,.579-.27,3.2,3.2,0,0,1,.671-.07Zm.06,11.084a3.863,3.863,0,0,0,1.721-.33,2.5,2.5,0,0,0,1.03-.93,3.819,3.819,0,0,0,.5-1.411,11.166,11.166,0,0,0,.13-1.771,11.036,11.036,0,0,0-.13-1.751,3.707,3.707,0,0,0-.5-1.4,2.576,2.576,0,0,0-1.03-.93,3.917,3.917,0,0,0-1.721-.361h-2.34v8.884Z" transform="translate(-87.348 -19.975)" fill="#1b47ea"/>
      <path id="Path_108605" data-name="Path 108605" d="M138.889,90.658a.838.838,0,0,1,.01.661q-.128.321-.711.321h-1.44l-1.02-2.8h-4.923l-.98,2.8h-1.5c-.361,0-.584-.107-.671-.321a.838.838,0,0,1,.01-.661q.9-2.38,4.322-11.464a1.728,1.728,0,0,1,.539-.82,1.19,1.19,0,0,1,.741-.26,1.162,1.162,0,0,1,.721.26,2.008,2.008,0,0,1,.581.82Zm-3.961-4.021-1.661-4.762-1.641,4.762Z" transform="translate(-82.73 -20.035)" fill="#1b47ea"/>
      <path id="Path_108606" data-name="Path 108606" d="M148.554,81.935a4.19,4.19,0,0,1-.22,1.22,3.6,3.6,0,0,1-.8,1.34,3.353,3.353,0,0,1,1.621,1.381,3.538,3.538,0,0,1,.5,1.761,5.568,5.568,0,0,1-.17,1.3,3.391,3.391,0,0,1-.641,1.3,3.625,3.625,0,0,1-1.29,1,4.8,4.8,0,0,1-2.1.4h-3.761a1.854,1.854,0,0,1-1.31-.471,1.77,1.77,0,0,1-.511-1.371v-10.7q.28-.118.669-.29a8.488,8.488,0,0,1,.882-.32,9.348,9.348,0,0,1,1.11-.26,7.59,7.59,0,0,1,1.34-.11,7.09,7.09,0,0,1,1.842.23,4.208,4.208,0,0,1,1.49.711,3.374,3.374,0,0,1,.99,1.2,3.716,3.716,0,0,1,.361,1.681m-6.443,1.741h1.9a2.242,2.242,0,0,0,1.671-.531,1.678,1.678,0,0,0,.509-1.19,1.611,1.611,0,0,0-.521-1.241,2.432,2.432,0,0,0-1.679-.479,6.194,6.194,0,0,0-.781.06q-.46.06-1.1.16Zm3.021,5.722a2.676,2.676,0,0,0,1.02-.16,1.4,1.4,0,0,0,.581-.421,1.348,1.348,0,0,0,.26-.549,2.821,2.821,0,0,0,.06-.571,1.658,1.658,0,0,0-.13-.619,1.7,1.7,0,0,0-.4-.581,1.886,1.886,0,0,0-.689-.411,3.059,3.059,0,0,0-1.02-.15h-2.7V89.4Z" transform="translate(-81.049 -20.035)" fill="#1b47ea"/>
      <path id="Path_108607" data-name="Path 108607" d="M161.633,90.658a.844.844,0,0,1,.01.661q-.128.321-.711.321h-1.44l-1.022-2.8H153.55l-.98,2.8h-1.5c-.36,0-.584-.107-.669-.321a.837.837,0,0,1,.01-.661q.9-2.38,4.322-11.464a1.728,1.728,0,0,1,.539-.82,1.189,1.189,0,0,1,.741-.26,1.165,1.165,0,0,1,.721.26,1.993,1.993,0,0,1,.579.82Zm-3.961-4.021-1.661-4.762-1.641,4.762Z" transform="translate(-76.846 -20.035)" fill="#1b47ea"/>
      <path id="Path_108608" data-name="Path 108608" d="M173.679,90.658a.85.85,0,0,1,.01.661q-.13.321-.711.321h-1.441l-1.02-2.8H165.6l-.98,2.8h-1.5q-.539,0-.671-.321a.844.844,0,0,1,.01-.661q.9-2.38,4.322-11.464a1.73,1.73,0,0,1,.541-.82,1.183,1.183,0,0,1,.739-.26,1.162,1.162,0,0,1,.721.26,2,2,0,0,1,.581.82Zm-3.963-4.021-1.661-4.762-1.64,4.762Z" transform="translate(-71.712 -20.035)" fill="#1b47ea"/>
      <path id="Path_108609" data-name="Path 108609" d="M185.384,78.254V89.979a1.56,1.56,0,0,1-.43,1.21,1.308,1.308,0,0,1-.882.391,1.643,1.643,0,0,1-.809-.2,1.957,1.957,0,0,1-.641-.6l-5.442-8.423v8.282q0,.942-.86.942h-1.381V79.774a1.5,1.5,0,0,1,.411-1.12,1.235,1.235,0,0,1,.87-.4,1.671,1.671,0,0,1,.81.19,1.807,1.807,0,0,1,.629.611l5.482,8.443V79.055q0-.8.721-.8Z" transform="translate(-66.77 -19.975)" fill="#1b47ea"/>
      <path id="Path_108610" data-name="Path 108610" d="M204.114,90.58a1.14,1.14,0,0,1,.19.5.451.451,0,0,1-.089.321.619.619,0,0,1-.291.18,1.292,1.292,0,0,1-.391.06h-1.56L198.412,86.6H195.97V91.64h-2.24V79.214q.679-.3,1.38-.531a14.224,14.224,0,0,1,1.521-.4,8.305,8.305,0,0,1,1.681-.17,5.623,5.623,0,0,1,3.771,1.1,4.083,4.083,0,0,1,1.27,3.262,4.246,4.246,0,0,1-.581,2.23,3.5,3.5,0,0,1-1.8,1.451Zm-5.323-6.063a2.611,2.611,0,0,0,.771-.12,2.192,2.192,0,0,0,.721-.381,1.943,1.943,0,0,0,.541-.689,2.434,2.434,0,0,0,.21-1.07,2.077,2.077,0,0,0-.22-1,1.553,1.553,0,0,0-.621-.619,2.972,2.972,0,0,0-.97-.311,8.359,8.359,0,0,0-1.291-.09,5.967,5.967,0,0,0-.649.04c-.234.027-.461.064-.681.11a5.817,5.817,0,0,0-.631.171v3.961Z" transform="translate(-58.748 -20.035)" fill="#1b47ea"/>
      <path id="Path_108611" data-name="Path 108611" d="M207.455,80.495v3h4.762v1.361a.769.769,0,0,1-.88.88h-3.881v3.6h6.622v1.4q-.019.841-.94.84h-5.842q-2.08,0-2.082-1.821V80.315q0-2.061,2.262-2.062h6.6v1.4a.733.733,0,0,1-.819.84Z" transform="translate(-53.845 -19.975)" fill="#1b47ea"/>
      <path id="Path_108612" data-name="Path 108612" d="M226.808,90.658a.838.838,0,0,1,.01.661q-.128.321-.711.321h-1.44l-1.02-2.8h-4.923l-.98,2.8h-1.5c-.361,0-.584-.107-.671-.321a.838.838,0,0,1,.01-.661q.9-2.38,4.322-11.464a1.728,1.728,0,0,1,.539-.82,1.19,1.19,0,0,1,.741-.26,1.162,1.162,0,0,1,.721.26,2.008,2.008,0,0,1,.581.82Zm-3.961-4.021-1.661-4.762-1.641,4.762Z" transform="translate(-49.448 -20.035)" fill="#1b47ea"/>
      <path id="Path_108613" data-name="Path 108613" d="M236.3,89.338v1.42a.717.717,0,0,1-.8.822h-4.523a4.074,4.074,0,0,1-1.46-.231,2.5,2.5,0,0,1-1.561-1.651,4.229,4.229,0,0,1-.18-1.26V79.055a.7.7,0,0,1,.78-.8h1.46v9.8a1.347,1.347,0,0,0,.3.992,1.289,1.289,0,0,0,.922.29Z" transform="translate(-44.212 -19.975)" fill="#1b47ea"/>
      <path id="Path_108614" data-name="Path 108614" d="M246.9,80.495v3h4.762v1.361a.769.769,0,0,1-.88.88H246.9v3.6h6.622v1.4q-.019.841-.94.84h-5.842q-2.081,0-2.082-1.821V80.315q0-2.061,2.262-2.062h6.6v1.4a.733.733,0,0,1-.819.84Z" transform="translate(-40.049 -19.975)" fill="#1b47ea"/>
      <path id="Path_108615" data-name="Path 108615" d="M264.445,80.063c0,.708-.335.98-1,.82s-1.247-.317-1.781-.431a8.019,8.019,0,0,0-1.661-.17,5.96,5.96,0,0,0-1.339.12,1.832,1.832,0,0,0-.762.341,1.133,1.133,0,0,0-.36.529,2.19,2.19,0,0,0-.1.691,1.245,1.245,0,0,0,.241.8,1.69,1.69,0,0,0,.589.469,2.806,2.806,0,0,0,.781.241c.288.046.671.093,1.15.14s.987.117,1.521.21a4.96,4.96,0,0,1,1.522.531,3.65,3.65,0,0,1,1.249,1.15,3.5,3.5,0,0,1,.531,2.041,5.625,5.625,0,0,1-.24,1.661,3.14,3.14,0,0,1-.831,1.35,4.1,4.1,0,0,1-1.57.9,7.957,7.957,0,0,1-2.5.331,10.021,10.021,0,0,1-1.15-.07c-.407-.047-.806-.1-1.2-.16s-.781-.134-1.162-.221-.711-.163-.99-.23V89.626c0-.639.315-.846.94-.619q.16.06.479.15c.216.06.468.12.761.18s.621.113.982.16a8.81,8.81,0,0,0,1.14.071,4.351,4.351,0,0,0,2.34-.481,1.616,1.616,0,0,0,.722-1.441,1.368,1.368,0,0,0-.331-.96,2.359,2.359,0,0,0-.779-.561,3.587,3.587,0,0,0-.952-.27c-.334-.046-.752-.1-1.26-.15a11,11,0,0,1-1.491-.26,4.413,4.413,0,0,1-1.35-.581,3.237,3.237,0,0,1-1.022-1.07,3.338,3.338,0,0,1-.4-1.731,4.227,4.227,0,0,1,.391-1.941,3.127,3.127,0,0,1,1.049-1.2,4.163,4.163,0,0,1,1.531-.611,9.6,9.6,0,0,1,1.831-.17,9.493,9.493,0,0,1,1.742.15q.8.15,1.461.33t1.28.421Z" transform="translate(-35.565 -20.023)" fill="#1b47ea"/>
      <path id="Path_108616" data-name="Path 108616" d="M275.988,78.254v1.381c0,.572-.26.86-.78.86h-2.981V91.58h-2.242V80.5h-3.761V79.035c0-.521.273-.781.82-.781Z" transform="translate(-30.841 -19.975)" fill="#1b47ea"/>
      <path id="Path_108617" data-name="Path 108617" d="M286.921,90.658a.844.844,0,0,1,.01.661q-.129.321-.711.321h-1.44l-1.022-2.8h-4.922l-.98,2.8h-1.5c-.36,0-.584-.107-.669-.321a.837.837,0,0,1,.01-.661q.9-2.38,4.322-11.464a1.729,1.729,0,0,1,.539-.82,1.189,1.189,0,0,1,.741-.26,1.165,1.165,0,0,1,.721.26,1.993,1.993,0,0,1,.579.82Zm-3.961-4.021L281.3,81.875l-1.641,4.762Z" transform="translate(-26.828 -20.035)" fill="#1b47ea"/>
      <path id="Path_108618" data-name="Path 108618" d="M295.717,78.254v1.381c0,.572-.26.86-.781.86h-2.981V91.58h-2.242V80.5h-3.761V79.035q0-.781.82-.781Z" transform="translate(-22.418 -19.975)" fill="#1b47ea"/>
      <path id="Path_108619" data-name="Path 108619" d="M299.006,80.495v3h4.762v1.361a.768.768,0,0,1-.88.88h-3.881v3.6h6.622v1.4q-.019.841-.94.84h-5.842q-2.083,0-2.082-1.821V80.315q0-2.061,2.262-2.062h6.6v1.4a.734.734,0,0,1-.82.84Z" transform="translate(-17.803 -19.975)" fill="#1b47ea"/>
      <path id="Path_108620" data-name="Path 108620" d="M319.686,80.442a2.681,2.681,0,0,0-2.431,1.162,5.865,5.865,0,0,0-.749,3.2,6.132,6.132,0,0,0,.85,3.522,3.093,3.093,0,0,0,2.731,1.22,6.084,6.084,0,0,0,1.36-.12,9,9,0,0,0,.92-.27,4.315,4.315,0,0,1,.539-.17.794.794,0,0,1,.662.07.649.649,0,0,1,.238.569v1.261a4.03,4.03,0,0,1-.939.439,9.973,9.973,0,0,1-1.271.32,9.108,9.108,0,0,1-1.711.141,6.081,6.081,0,0,1-2.75-.541,4.788,4.788,0,0,1-1.762-1.5,5.988,5.988,0,0,1-.97-2.19,11.809,11.809,0,0,1-.28-2.611,11.593,11.593,0,0,1,.28-2.581,6,6,0,0,1,.97-2.18,4.8,4.8,0,0,1,1.762-1.5,6.1,6.1,0,0,1,2.75-.539,10.078,10.078,0,0,1,1.641.12,11.679,11.679,0,0,1,1.281.28,7.137,7.137,0,0,1,1,.361v1.44a.771.771,0,0,1-.218.6.659.659,0,0,1-.682.04c-.146-.04-.358-.1-.639-.18s-.644-.16-1.09-.241a8.509,8.509,0,0,0-1.491-.12" transform="translate(-15.582 -20.023)" fill="#1b47ea"/>
      <path id="Path_108621" data-name="Path 108621" d="M330.8,78.142a6.378,6.378,0,0,1,2.811.529,4.291,4.291,0,0,1,1.691,1.451,5.675,5.675,0,0,1,.85,2.162,14.652,14.652,0,0,1,.23,2.661,16.525,16.525,0,0,1-.19,2.53,5.845,5.845,0,0,1-.781,2.192,4.347,4.347,0,0,1-1.651,1.541,7.428,7.428,0,0,1-5.752,0,4.424,4.424,0,0,1-1.67-1.531,5.624,5.624,0,0,1-.792-2.182,16.831,16.831,0,0,1-.19-2.55,16.37,16.37,0,0,1,.19-2.5,5.831,5.831,0,0,1,.781-2.182,4.355,4.355,0,0,1,1.641-1.54,5.854,5.854,0,0,1,2.831-.581m.08,11.585a3.23,3.23,0,0,0,1.661-.38,2.564,2.564,0,0,0,.98-1.032A4.975,4.975,0,0,0,334,86.795a11.689,11.689,0,0,0,.14-1.849,12.656,12.656,0,0,0-.13-1.872,4.684,4.684,0,0,0-.471-1.51,2.462,2.462,0,0,0-.97-1,3.393,3.393,0,0,0-1.691-.361,3.447,3.447,0,0,0-1.7.361,2.424,2.424,0,0,0-.98,1,4.645,4.645,0,0,0-.471,1.51,12.64,12.64,0,0,0-.131,1.872,13,13,0,0,0,.131,1.9,4.651,4.651,0,0,0,.471,1.52,2.423,2.423,0,0,0,.98,1,3.447,3.447,0,0,0,1.7.361" transform="translate(-10.787 -20.023)" fill="#1b47ea"/>
      <path id="Path_108622" data-name="Path 108622" d="M348.6,78.935a1.394,1.394,0,0,1,.571-.511,1.834,1.834,0,0,1,.809-.17,1.5,1.5,0,0,1,.922.361,1.408,1.408,0,0,1,.46,1.18V90.76a.726.726,0,0,1-.821.821h-1.421V82.2l-3.281,4.682a1.51,1.51,0,0,1-2.481-.02L340.075,82.2v8.6q0,.781-.821.781h-1.42V79.815a1.431,1.431,0,0,1,.46-1.2,1.489,1.489,0,0,1,.912-.361,1.721,1.721,0,0,1,.8.18,1.537,1.537,0,0,1,.571.5l4.023,5.9Z" transform="translate(-5.459 -19.975)" fill="#1b47ea"/>
      <path id="Path_108623" data-name="Path 108623" d="M356.744,78.114a6.344,6.344,0,0,1,2.162.34,4.265,4.265,0,0,1,1.57.96,3.987,3.987,0,0,1,.952,1.491,5.571,5.571,0,0,1,.32,1.931,9.649,9.649,0,0,1-.241,2.011,4.328,4.328,0,0,1-.769,1.671,3.825,3.825,0,0,1-1.521,1.15,6.387,6.387,0,0,1-2.491.449,6.979,6.979,0,0,1-1.29-.12q-.65-.12-1.112-.22v3.861h-2.24V79.394a11.693,11.693,0,0,1,2.031-.89,8.191,8.191,0,0,1,2.631-.39m.16,7.783a2.728,2.728,0,0,0,1.491-.36,2.539,2.539,0,0,0,.751-.781,2.309,2.309,0,0,0,.31-.98c.033-.361.05-.674.05-.94a3.541,3.541,0,0,0-.12-.912,2.091,2.091,0,0,0-.42-.809,2.157,2.157,0,0,0-.8-.581,3.081,3.081,0,0,0-1.24-.22,7.965,7.965,0,0,0-1.621.13,5.709,5.709,0,0,0-.982.29v4.722a4.125,4.125,0,0,0,.992.311,8.03,8.03,0,0,0,1.59.13" transform="translate(0.624 -20.035)" fill="#1b47ea"/>
      <path id="Path_108624" data-name="Path 108624" d="M372.864,90.658a.844.844,0,0,1,.01.661q-.13.321-.711.321h-1.44l-1.022-2.8h-4.921l-.98,2.8h-1.5q-.54,0-.671-.321a.843.843,0,0,1,.01-.661q.9-2.38,4.322-11.464a1.73,1.73,0,0,1,.541-.82,1.187,1.187,0,0,1,.741-.26,1.161,1.161,0,0,1,.719.26,2,2,0,0,1,.581.82ZM368.9,86.637l-1.66-4.762L365.6,86.637Z" transform="translate(4.673 -20.035)" fill="#1b47ea"/>
      <path id="Path_108625" data-name="Path 108625" d="M384.569,78.254V89.979a1.556,1.556,0,0,1-.431,1.21,1.305,1.305,0,0,1-.88.391,1.639,1.639,0,0,1-.809-.2,1.942,1.942,0,0,1-.641-.6l-5.442-8.423v8.282c0,.628-.288.942-.861.942h-1.381V79.774a1.5,1.5,0,0,1,.411-1.12,1.234,1.234,0,0,1,.87-.4,1.675,1.675,0,0,1,.811.19,1.821,1.821,0,0,1,.629.611l5.482,8.443V79.055q0-.8.721-.8Z" transform="translate(10.034 -19.975)" fill="#1b47ea"/>
      <path id="Path_108626" data-name="Path 108626" d="M396.728,78.254a.892.892,0,0,1,.511.12.6.6,0,0,1,.228.28.587.587,0,0,1,.021.341.9.9,0,0,1-.12.3L392.7,86.138v4.6c0,.559-.26.84-.78.84h-1.46V86.1l-4.582-6.7a.761.761,0,0,1-.181-.31.665.665,0,0,1-.009-.381.571.571,0,0,1,.23-.32.89.89,0,0,1,.521-.13h1.42l3.721,5.362,3.7-5.362Z" transform="translate(14.964 -19.975)" fill="#1b47ea"/>
    </g>
  </g>
</svg>
